# xmcd
#
# Track frame offsets: 
#        150
#        14527
#        25702
#        40917
#        53142
#        67187
#        80510
#        94392
#        108327
#        118805
#        129347
#        146167
#        162365
#        174255
#        193917
#
# Disc length: 2807 seconds
#
# Revision: 3
# Processed by: cddbd v1.5.2PL0 Copyright (c) Steve Scherf et al.
# Submitted via: ExactAudioCopy v0.99pb5
#
DISCID=d40af50f
DTITLE=Various Artist - Classic Country Vol. 19 The '70s Treasures Disc 2
DYEAR=1999
DGENRE=Country
TTITLE0=Jerry Lee Lewis - Me And Bobby McGee
TTITLE1=Joe Stampley - Soul Song
TTITLE2=Merle Haggard And The Strangers - It's Not Love (But It's Not 
TTITLE2=Bad)
TTITLE3=Dolly Parton - The Bargain Store
TTITLE4=George Jones - Loving You Could Never Be Better
TTITLE5=Sonny James - Endlessly
TTITLE6=Tanya Tucker - Blood Red And Goin' Down
TTITLE7=Don Williams - I'm Just A Country Boy
TTITLE8=Eric Weissberg And Steve Mandell - Dueling Banjos
TTITLE9=Loretta Lynn - You're Lookin' At Country
TTITLE10=Conway Twitty - Don't Take It Away
TTITLE11=Crystal Gayle - I'll Get Over You
TTITLE12=Charley Pride - It's Gonna Take A Little Bit Longer
TTITLE13=Willie Nelson - Georgia On My Mind
TTITLE14=T.G. Sheppard - Last Cheater's Waltz
EXTD=
EXTT0=
EXTT1=
EXTT2=
EXTT3=
EXTT4=
EXTT5=
EXTT6=
EXTT7=
EXTT8=
EXTT9=
EXTT10=
EXTT11=
EXTT12=
EXTT13=
EXTT14=
PLAYORDER=
